<?xml version="1.0" encoding="UTF-8" standalone="no"?>
<svg xmlns="http://www.w3.org/2000/svg" width="64" height="64" viewBox="0 0 16 16">
  <path stroke="#00b400" stroke-width="0" d="
    M 3 1.9 C 1.9 1.9 0.9 2.9 0.9 4 L 0.9 12 C 0.9 13.1 1.9 14.1 3 14.1 L 13 14.1 C 14 14.1 15.1 13 15.1 12 L 15.1 4 C 15.1 2.9 14.1 1.9 13 1.9 z
    " fill="#000000"/>
  <path d="
    M 4.5 10.5 L 7 8 L 4.4799 5.5201
    " stroke="#CED0D6" fill-opacity="0" stroke-linecap="round"/>
  <path d="
    M 3 2 C 1.895 2 1 2.895 1 4 L 1 12 C 1 13.105 1.895 14 3 14 L 7.9102 14 L 8.2773 13 L 3 13 C 2.448 13 2 12.552 2 12 L 2 4 C 2 3.448 2.448 3 3 3 L 13 3 C 13.552 3 14 3.448 14 4 l 0 5.2617 l 1 2.7383 L 15 4 C 14.9995 2.895 14.105 2 13 2 L 3 2 z
    " fill="#CED0D6" stroke="#000" stroke-width="0.1"/>
  <path d="
    m 8.677,14.5645 2.521,-6.868 h 1.074 l 2.605,6.868 h -1.03 l -0.623,-1.747 H 10.31 l -0.584,1.747 z m 1.908,-2.566 h 2.345 l -1.089,-2.997 -0.113,-0.422 -0.113,0.422 z
    " fill="#CED0D6" stroke="#000" stroke-width="0.1"/>
</svg>
